Coordinates
version=1
nRows=107
nColumns=6
inDegrees=yes

Units are S.I. units (second, meters, Newtons, ...)
If the header above contains a line with 'inDegrees', this indicates whether rotational values are in degrees (yes) or radians (no).

endheader
time	foot_tx	hip_flexion_r	knee_angle_r	ankle_angle_r	lumbar
     24.90000000	      0.17458650	     56.37045639	    -69.67158201	      2.53956938	    -22.72499733
     24.91000000	      0.17456653	     56.37730033	    -69.66697231	      2.53458373	    -22.73236068
     24.92000000	      0.17457564	     56.38202291	    -69.65471202	      2.52443261	    -22.74118775
     24.93000000	      0.17456454	     56.38756889	    -69.64660782	      2.51841531	    -22.75129856
     24.94000000	      0.17455741	     56.39339690	    -69.63854401	      2.51242017	    -22.76288268
     24.95000000	      0.17454440	     56.40238970	    -69.63150130	      2.50719888	    -22.77553412
     24.96000000	      0.17452890	     56.41460633	    -69.62443245	      2.50183185	    -22.78991375
     24.97000000	      0.17451016	     56.43049919	    -69.61750033	      2.49631240	    -22.80721935
     24.98000000	      0.17448831	     56.45034323	    -69.61086561	      2.49069466	    -22.82808636
     24.99000000	      0.17446234	     56.47389957	    -69.60415020	      2.48503090	    -22.85364208
     25.00000000	      0.17443407	     56.50062124	    -69.59738894	      2.47929414	    -22.88578838
     25.01000000	      0.17439063	     56.50349234	    -69.59075361	      2.47700547	    -22.95530672
     25.02000000	      0.17434925	     56.52113437	    -69.58381322	      2.47331440	    -23.02077501
     25.03000000	      0.17430505	     56.53804083	    -69.57666546	      2.47003712	    -23.10008763
     25.04000000	      0.17425870	     56.55484599	    -69.56917608	      2.46701408	    -23.19317258
     25.05000000	      0.17421480	     56.57066275	    -69.56004741	      2.46336281	    -23.30146506
     25.06000000	      0.17415650	     56.59065462	    -69.55263116	      2.46165439	    -23.41960231
     25.07000000	      0.17410352	     56.61063883	    -69.54284880	      2.45884149	    -23.55203748
     25.08000000	      0.17404520	     56.63427730	    -69.53287122	      2.45657717	    -23.69486276
     25.09000000	      0.17398619	     56.66128268	    -69.52165201	      2.45408848	    -23.84848134
     25.10000000	      0.17392429	     56.69361374	    -69.50982798	      2.45175598	    -24.01098444
     25.11000000	      0.17386033	     56.73278102	    -69.49743829	      2.44943937	    -24.18119110
     25.12000000	      0.17379624	     56.78042859	    -69.48458254	      2.44694761	    -24.35781732
     25.13000000	      0.17373138	     56.83801936	    -69.47167366	      2.44444079	    -24.53993393
     25.14000000	      0.17366115	     56.90687800	    -69.45938450	      2.44257757	    -24.72674124
     25.15000000	      0.17358511	     56.98673979	    -69.44779208	      2.44168598	    -24.91881203
     25.16000000	      0.17350826	     57.07562165	    -69.43802591	      2.44262537	    -25.11754538
     25.17000000	      0.17344087	     57.17094288	    -69.42690720	      2.44335415	    -25.32611204
     25.18000000	      0.17337719	     57.27270164	    -69.41543145	      2.44505382	    -25.54435387
     25.19000000	      0.17331627	     57.38109890	    -69.40483615	      2.44871255	    -25.77166932
     25.20000000	      0.17325884	     57.49486916	    -69.39342626	      2.45338697	    -26.00994049
     25.21000000	      0.17320658	     57.61768912	    -69.38229030	      2.45941664	    -26.25509731
     25.22000000	      0.17315418	     57.74966587	    -69.37122943	      2.46680554	    -26.50789080
     25.23000000	      0.17310282	     57.89565592	    -69.36034139	      2.47500636	    -26.76363929
     25.24000000	      0.17304930	     58.05830179	    -69.34961221	      2.48380513	    -27.02038690
     25.25000000	      0.17299481	     58.24122120	    -69.33904693	      2.49280517	    -27.27449548
     25.26000000	      0.17293427	     58.44454411	    -69.32844126	      2.50233859	    -27.52635793
     25.27000000	      0.17287250	     58.66683698	    -69.31723155	      2.51235106	    -27.77692889
     25.28000000	      0.17281306	     58.92004710	    -69.30573341	      2.52205325	    -28.01225293
     25.29000000	      0.17274932	     59.18111747	    -69.29283655	      2.53387891	    -28.25841613
     25.30000000	      0.17267124	     59.42323080	    -69.27860729	      2.55121067	    -28.54506205
     25.31000000	      0.17260356	     59.70828653	    -69.26382549	      2.56753590	    -28.80293243
     25.32000000	      0.17253530	     60.00343789	    -69.24769507	      2.58634192	    -29.06922236
     25.33000000	      0.17246813	     60.30991202	    -69.22969396	      2.60712845	    -29.34242088
     25.34000000	      0.17240234	     60.62909987	    -69.20953159	      2.62971986	    -29.62094336
     25.35000000	      0.17233847	     60.98543622	    -69.18944685	      2.65329011	    -29.87668938
     25.36000000	      0.17227689	     61.32608156	    -69.16408974	      2.67996639	    -30.16829127
     25.37000000	      0.17220891	     61.71931052	    -69.14036496	      2.70799433	    -30.41822422
     25.38000000	      0.17214049	     62.07849371	    -69.11099049	      2.74141983	    -30.72199301
     25.39000000	      0.17205075	     62.50465960	    -69.08414802	      2.77734599	    -30.96735702
     25.40000000	      0.17195429	     62.91200625	    -69.05322114	      2.81938028	    -31.24833866
     25.41000000	      0.17184313	     63.32837485	    -69.02053949	      2.86724444	    -31.53439026
     25.42000000	      0.17172061	     63.75181390	    -68.98631123	      2.92127627	    -31.82716790
     25.43000000	      0.17158597	     64.18606215	    -68.95066364	      2.98153727	    -32.12309294
     25.44000000	      0.17144492	     64.63367470	    -68.91295329	      3.04700079	    -32.41947490
     25.45000000	      0.17129853	     65.10002769	    -68.87322508	      3.11715082	    -32.71058442
     25.46000000	      0.17114870	     65.58714537	    -68.83150610	      3.19130107	    -32.99348133
     25.47000000	      0.17099564	     66.10052162	    -68.78718277	      3.26855256	    -33.26213598
     25.48000000	      0.17084313	     66.64387595	    -68.73965796	      3.34763507	    -33.51135172
     25.49000000	      0.17069228	     67.22238039	    -68.68875595	      3.42801708	    -33.73396393
     25.50000000	      0.17054694	     67.83645517	    -68.63415265	      3.50968467	    -33.92653396
     25.51000000	      0.17040912	     68.48242672	    -68.57541759	      3.59395733	    -34.08897481
     25.52000000	      0.17028785	     69.15368281	    -68.51191341	      3.68209786	    -34.22285999
     25.53000000	      0.17018830	     69.84070941	    -68.44296776	      3.77621206	    -34.33386874
     25.54000000	      0.17010376	     70.54281187	    -68.36726175	      3.87721830	    -34.41987050
     25.55000000	      0.17004078	     71.26025752	    -68.28408186	      3.98498694	    -34.47764708
     25.56000000	      0.17001152	     72.00491273	    -68.18929673	      4.09610032	    -34.49173900
     25.57000000	      0.17000709	     72.76978241	    -68.08472921	      4.21295273	    -34.46821699
     25.58000000	      0.17002099	     73.56384909	    -67.96540434	      4.33299778	    -34.39437887
     25.59000000	      0.17005121	     74.38347483	    -67.82837174	      4.45526236	    -34.27165036
     25.60000000	      0.17008997	     75.22522219	    -67.67169261	      4.57973420	    -34.10031016
     25.61000000	      0.17013605	     76.08471268	    -67.49189864	      4.70514500	    -33.88189534
     25.62000000	      0.17018567	     76.95499904	    -67.28515887	      4.83049682	    -33.62066816
     25.63000000	      0.17024100	     77.83184669	    -67.05027743	      4.95547493	    -33.31780393
     25.64000000	      0.17031102	     78.70090768	    -66.78521294	      5.07937372	    -32.98752303
     25.65000000	      0.17039148	     79.55927664	    -66.49166442	      5.20288497	    -32.63102221
     25.66000000	      0.17048456	     80.39796105	    -66.17196009	      5.32677388	    -32.25732798
     25.67000000	      0.17058887	     81.20722659	    -65.83020672	      5.45264327	    -31.87657506
     25.68000000	      0.17070075	     81.98302248	    -65.47158970	      5.58209564	    -31.49209169
     25.69000000	      0.17081743	     82.72214153	    -65.10100916	      5.71639536	    -31.10585331
     25.70000000	      0.17093608	     83.41805534	    -64.72283572	      5.85679102	    -30.72354948
     25.71000000	      0.17105073	     84.06759280	    -64.34131944	      6.00445734	    -30.34648950
     25.72000000	      0.17115803	     84.66541152	    -63.95868491	      6.15956790	    -29.97834308
     25.73000000	      0.17125414	     85.20331544	    -63.57614875	      6.32204592	    -29.62627910
     25.74000000	      0.17133682	     85.67706514	    -63.19395937	      6.49096920	    -29.29295710
     25.75000000	      0.17140807	     86.07501061	    -62.81209154	      6.66553141	    -28.99106963
     25.76000000	      0.17146693	     86.39465580	    -62.42977927	      6.84414137	    -28.72159529
     25.77000000	      0.17151607	     86.62831845	    -62.04721750	      7.02606391	    -28.49298686
     25.78000000	      0.17155731	     86.77446566	    -61.66406981	      7.21008192	    -28.30603712
     25.79000000	      0.17158972	     86.83559636	    -61.28010630	      7.39523171	    -28.15663287
     25.80000000	      0.17162081	     86.81109039	    -60.89262196	      7.57952326	    -28.04458409
     25.81000000	      0.17164689	     86.70747974	    -60.49996957	      7.76185845	    -27.96076168
     25.82000000	      0.17166870	     86.53537653	    -60.09909524	      7.94038751	    -27.89099782
     25.83000000	      0.17168779	     86.29432095	    -59.68625483	      8.11356695	    -27.83502207
     25.84000000	      0.17172148	     85.99589743	    -59.25718734	      8.27813108	    -27.77765803
     25.85000000	      0.17176076	     85.64565247	    -58.81042470	      8.43412556	    -27.71229639
     25.86000000	      0.17181638	     85.25165854	    -58.34293508	      8.57956320	    -27.62950081
     25.87000000	      0.17189130	     84.81599829	    -57.85399204	      8.71415719	    -27.52755693
     25.88000000	      0.17199346	     84.33999068	    -57.34135221	      8.83658522	    -27.40705805
     25.89000000	      0.17213266	     83.82418657	    -56.80356836	      8.94543310	    -27.27003345
     25.90000000	      0.17232470	     83.27032396	    -56.23887586	      9.03835027	    -27.11739479
     25.91000000	      0.17257879	     82.67516605	    -55.64716744	      9.11463192	    -26.95637187
     25.92000000	      0.17291132	     82.04292240	    -55.02745705	      9.17175435	    -26.78512464
     25.93000000	      0.17331890	     81.36991550	    -54.38275337	      9.21133427	    -26.61109440
     25.94000000	      0.17379900	     80.65707008	    -53.71514293	      9.23384872	    -26.43643995
     25.95000000	      0.17433413	     79.90416491	    -53.02923599	      9.24229106	    -26.26457268
     25.96000000	      0.17491234	     79.11934931	    -52.32857358	      9.23797089	    -26.08753527
